<?xml version="1.0" standalone="no"?>
<!DOCTYPE svg PUBLIC "-//W3C//DTD SVG 20010904//EN"
 "http://www.w3.org/TR/2001/REC-SVG-20010904/DTD/svg10.dtd">
<svg version="1.0" xmlns="http://www.w3.org/2000/svg"
 width="700.000000pt" height="700.000000pt" viewBox="0 0 700.000000 700.000000"
 preserveAspectRatio="xMidYMid meet">
<metadata>
Created by potrace 1.11, written by Peter Selinger 2001-2013
</metadata>
<g transform="translate(0.000000,700.000000) scale(0.100000,-0.100000)"
fill="#000000" stroke="none">
<path d="M615 6993 c-22 -2 -71 -13 -110 -25 -223 -65 -403 -247 -476 -478
l-24 -75 0 -2915 0 -2915 26 -81 c75 -230 247 -401 479 -475 l75 -24 2915 0
2915 0 75 24 c232 74 404 245 479 475 l26 81 0 2915 0 2915 -24 75 c-72 230
-243 403 -476 481 l-70 24 -2885 1 c-1587 0 -2903 -1 -2925 -3z m5526 -708
c24 -9 63 -34 86 -57 80 -78 73 173 73 -2728 0 -2926 8 -2654 -80 -2733 -26
-24 -66 -49 -88 -55 -57 -17 -5207 -17 -5264 0 -22 6 -62 31 -88 55 -88 79
-80 -193 -80 2733 0 2901 -7 2650 73 2728 78 77 -170 71 2723 71 2319 1 2606
-1 2645 -14z"/>
<path d="M1295 5481 c-46 -11 -79 -37 -103 -80 l-22 -39 0 -1857 c0 -2068 -6
-1897 68 -1953 l35 -27 1072 0 1072 0 36 28 c69 53 72 65 72 317 0 223 0 225
-25 263 -14 20 -43 46 -66 57 -39 19 -62 20 -807 20 l-767 0 0 510 0 510 627
0 c613 0 628 0 669 21 26 12 53 36 66 57 22 36 23 45 23 272 0 227 -1 236 -23
272 -13 21 -40 45 -66 57 -41 21 -56 21 -669 21 l-627 0 0 430 0 429 778 3
777 3 42 24 c76 43 83 72 83 321 0 196 -2 217 -21 256 -12 26 -36 53 -57 66
l-37 23 -1050 2 c-577 0 -1064 -2 -1080 -6z"/>
<path d="M4000 1860 l0 -350 915 0 915 0 0 350 0 350 -915 0 -915 0 0 -350z"/>
</g>
</svg>
